<svg width="378" height="60" viewBox="0 0 378 60" fill="none" xmlns="http://www.w3.org/2000/svg">
<path d="M357.643 56.7514V59.9337H19.9067V56.7514H357.643ZM374.564 38.7182V21.2155C374.564 11.256 366.988 3.18232 357.643 3.18232H19.9067C10.5617 3.18232 2.986 11.256 2.986 21.2155V38.7182C2.986 48.6777 10.5617 56.7514 19.9067 56.7514V59.9337C8.91253 59.9337 0 50.4352 0 38.7182V21.2155C1.03097e-06 9.68171 8.63598 0.297912 19.3925 0.00725138L19.9067 0H357.643C368.637 0 377.55 9.49849 377.55 21.2155V38.7182L377.543 39.2662C377.27 50.7299 368.465 59.9337 357.643 59.9337V56.7514C366.988 56.7514 374.564 48.6777 374.564 38.7182Z" fill="white"/>
<path fill-rule="evenodd" clip-rule="evenodd" d="M38.2492 35.788C36.022 37.7894 33.1943 38.8865 30.2725 38.8828C27.8286 38.8828 25.4396 38.1159 23.4076 36.679C21.3756 35.2421 19.7918 33.1998 18.8566 30.8103C17.9214 28.4209 17.6767 25.7916 18.1534 23.255C18.6302 20.7183 19.8071 18.3883 21.5351 16.5595C23.2632 14.7306 25.4649 13.4852 27.8618 12.9806C30.2587 12.4761 32.7432 12.735 35.0011 13.7248C37.2589 14.7145 39.1887 16.3906 40.5464 18.5411C41.9042 20.6915 42.6289 23.2198 42.6289 25.8061C42.6289 29.0317 41.5305 31.9667 39.7045 34.2478L47.8186 42.8349C48.0116 43.0391 48.12 43.3161 48.12 43.605C48.12 43.8938 48.0116 44.1708 47.8186 44.375C47.6256 44.5793 47.3638 44.694 47.0909 44.694C46.818 44.694 46.5563 44.5793 46.3633 44.375L38.2492 35.788ZM41.2559 25.8061C41.2559 32.2282 36.3408 37.4298 30.2725 37.4298C24.2041 37.4298 19.289 32.2282 19.289 25.8061C19.289 19.384 24.2041 14.1823 30.2725 14.1823C36.3408 14.1823 41.2559 19.384 41.2559 25.8061Z" fill="white"/>
</svg>
