<svg width="57" height="60" viewBox="0 0 57 60" fill="none" xmlns="http://www.w3.org/2000/svg">
<path d="M36.7253 56.7514V59.9337H19.9067V56.7514H36.7253ZM53.646 38.7182V21.2155C53.646 11.256 46.0703 3.18232 36.7253 3.18232H19.9067C10.5617 3.18232 2.986 11.256 2.986 21.2155V38.7182C2.986 48.6777 10.5617 56.7514 19.9067 56.7514V59.9337L19.3925 59.9265C8.63598 59.6358 0 50.252 0 38.7182V21.2155C8.65746e-07 9.49849 8.91253 7.31444e-07 19.9067 0H36.7253C47.7195 0 56.632 9.49849 56.632 21.2155V38.7182L56.6262 39.2662C56.3534 50.7299 47.5476 59.9337 36.7253 59.9337V56.7514C46.0703 56.7514 53.646 48.6777 53.646 38.7182Z" fill="white"/>
<path d="M27.4638 47.2192C27.7884 47.5795 28.1941 47.7417 28.616 47.7417C29.038 47.7417 29.4437 47.5615 29.7682 47.2192L41.9394 33.7077C45.7531 29.474 45.7531 22.8083 41.9394 18.5567C38.2069 14.4492 32.4459 14.3231 28.616 18.1964C24.7861 14.3231 19.0251 14.4312 15.2926 18.5567C11.479 22.8083 11.479 29.474 15.2926 33.7077L27.4638 47.2192ZM17.597 21.0969C18.8791 19.6917 20.5019 18.9891 22.1409 18.9891C23.78 18.9891 25.4028 19.6917 26.6686 21.0969L27.48 21.9976C28.1129 22.7002 29.1353 22.7002 29.7682 21.9976L30.5796 21.0969C33.1113 18.2865 37.1034 18.2865 39.6512 21.0969C42.1829 23.9253 42.1829 28.3391 39.6512 31.1495L28.6322 43.3819L17.6132 31.1495C17.0117 30.4938 16.5339 29.7116 16.2077 28.8486C15.8815 27.9856 15.7135 27.0591 15.7135 26.1232C15.7135 25.1873 15.8815 24.2608 16.2077 23.3977C16.5339 22.5347 17.0117 21.7525 17.6132 21.0969H17.597Z" fill="white"/>
</svg>
