<svg width="25" height="25" viewBox="0 0 25 25" fill="none" xmlns="http://www.w3.org/2000/svg">
<g clip-path="url(#clip0_262_75)">
<path d="M12.4999 8.33325C11.3948 8.33325 10.335 8.77224 9.55364 9.55364C8.77224 10.335 8.33325 11.3948 8.33325 12.4999C8.33325 13.605 8.77224 14.6648 9.55364 15.4462C10.335 16.2276 11.3948 16.6666 12.4999 16.6666C13.605 16.6666 14.6648 16.2276 15.4462 15.4462C16.2276 14.6648 16.6666 13.605 16.6666 12.4999C16.6666 11.3948 16.2276 10.335 15.4462 9.55364C14.6648 8.77224 13.605 8.33325 12.4999 8.33325Z" fill="white"/>
<path fill-rule="evenodd" clip-rule="evenodd" d="M7.5 0C5.51088 0 3.60322 0.790176 2.1967 2.1967C0.790176 3.60322 0 5.51088 0 7.5L0 17.5C0 19.4891 0.790176 21.3968 2.1967 22.8033C3.60322 24.2098 5.51088 25 7.5 25H17.5C19.4891 25 21.3968 24.2098 22.8033 22.8033C24.2098 21.3968 25 19.4891 25 17.5V7.5C25 5.51088 24.2098 3.60322 22.8033 2.1967C21.3968 0.790176 19.4891 0 17.5 0L7.5 0ZM6.66667 12.5C6.66667 10.9529 7.28125 9.46917 8.37521 8.37521C9.46917 7.28125 10.9529 6.66667 12.5 6.66667C14.0471 6.66667 15.5308 7.28125 16.6248 8.37521C17.7188 9.46917 18.3333 10.9529 18.3333 12.5C18.3333 14.0471 17.7188 15.5308 16.6248 16.6248C15.5308 17.7188 14.0471 18.3333 12.5 18.3333C10.9529 18.3333 9.46917 17.7188 8.37521 16.6248C7.28125 15.5308 6.66667 14.0471 6.66667 12.5ZM18.3333 6.66667H20V5H18.3333V6.66667Z" fill="white"/>
</g>
<defs>
<clipPath id="clip0_262_75">
<rect width="25" height="25" fill="white"/>
</clipPath>
</defs>
</svg>
