<svg width="57" height="60" viewBox="0 0 57 60" fill="none" xmlns="http://www.w3.org/2000/svg">
<path d="M36.7253 56.7514V59.9337H19.9067V56.7514H36.7253ZM53.646 38.7182V21.2155C53.646 11.256 46.0703 3.18232 36.7253 3.18232H19.9067C10.5617 3.18232 2.986 11.256 2.986 21.2155V38.7182C2.986 48.6777 10.5617 56.7514 19.9067 56.7514V59.9337L19.3925 59.9265C8.63598 59.6358 0 50.252 0 38.7182V21.2155C8.65746e-07 9.49849 8.91253 7.31444e-07 19.9067 0H36.7253C47.7195 0 56.632 9.49849 56.632 21.2155V38.7182L56.6262 39.2662C56.3534 50.7299 47.5476 59.9337 36.7253 59.9337V56.7514C46.0703 56.7514 53.646 48.6777 53.646 38.7182Z" fill="white"/>
<path d="M33.2709 26.1994V22.886H21.969V26.1994C21.969 27.0505 21.2789 27.7405 20.4277 27.7407C19.5765 27.7407 18.8864 27.0506 18.8864 26.1994V22.886H12.9781V39.1459C12.9781 40.3984 13.5296 41.6372 14.5746 42.5777C15.625 43.523 17.0814 44.0778 18.6295 44.0778H36.6104C38.1585 44.0778 39.6149 43.5229 40.6653 42.5777C41.7103 41.6372 42.2618 40.3984 42.2618 39.1459V22.886H36.3535V26.1994C36.3535 27.0506 35.6634 27.7407 34.8122 27.7407C33.9611 27.7404 33.2709 27.0505 33.2709 26.1994ZM33.2709 19.7261C33.2709 18.4736 32.7194 17.2348 31.6744 16.2943C30.6241 15.3492 29.1683 14.7942 27.6205 14.7941C26.0724 14.7941 24.6159 15.3491 23.5655 16.2943C22.5205 17.2348 21.969 18.4736 21.969 19.7261V19.8034H33.2709V19.7261ZM36.3535 19.8034H43.8031C44.6543 19.8034 45.3444 20.4934 45.3444 21.3447V39.1459C45.3444 41.327 44.3801 43.3811 42.7274 44.8686C41.08 46.3512 38.8774 47.1604 36.6104 47.1604H18.6295C16.3625 47.1604 14.1599 46.3512 12.5125 44.8686C10.8599 43.3811 9.89551 41.327 9.89551 39.1459V21.3447C9.89551 20.4934 10.5856 19.8034 11.4368 19.8034H18.8864V19.7261C18.8864 17.545 19.8507 15.4909 21.5034 14.0034C23.1508 12.5209 25.3535 11.7115 27.6205 11.7115C29.8873 11.7116 32.0902 12.5209 33.7375 14.0034C35.39 15.4908 36.3535 17.5451 36.3535 19.7261V19.8034Z" fill="white"/>
</svg>
