<svg width="25" height="25" viewBox="0 0 25 25" fill="none" xmlns="http://www.w3.org/2000/svg">
<path d="M12.5 0.118164C14.6192 0.118164 16.6899 0.312074 18.6777 0.53418C20.1627 0.70456 21.5461 1.37321 22.6016 2.43164C23.5912 3.42403 24.2374 4.70376 24.4512 6.08398L24.4883 6.36133C24.7011 8.33956 24.8818 10.3955 24.8818 12.5C24.8818 14.6045 24.7011 16.6604 24.4883 18.6387C24.3222 20.1243 23.6571 21.5098 22.6016 22.5684C21.5461 23.6268 20.1627 24.2954 18.6777 24.4658C16.6899 24.6879 14.6192 24.8818 12.5 24.8818C10.3808 24.8818 8.31011 24.6879 6.32227 24.4658C4.83727 24.2954 3.4539 23.6268 2.39844 22.5684C1.40883 21.576 0.762649 20.2962 0.548828 18.916L0.511719 18.6387C0.298913 16.6604 0.118164 14.6045 0.118164 12.5C0.118164 10.3955 0.298913 8.33956 0.511719 6.36133C0.677835 4.87568 1.34287 3.49019 2.39844 2.43164C3.4539 1.37321 4.83727 0.70456 6.32227 0.53418C8.31011 0.312074 10.3808 0.118164 12.5 0.118164ZM13.6943 3.86719C13.3831 3.90275 13.0952 4.05136 12.8867 4.28516C12.6783 4.5189 12.5634 4.82163 12.5635 5.13477V15.833C12.5635 16.378 12.4023 16.9111 12.0996 17.3643C11.7968 17.8175 11.3659 18.1713 10.8623 18.3799C10.3587 18.5885 9.80419 18.6425 9.26953 18.5361C8.73497 18.4298 8.2438 18.1676 7.8584 17.7822C7.47299 17.3968 7.21085 16.9057 7.10449 16.3711C6.99814 15.8364 7.05213 15.282 7.26074 14.7783C7.46936 14.2747 7.82315 13.8448 8.27637 13.542C8.72963 13.2391 9.26249 13.0771 9.80762 13.0771C10.1458 13.0771 10.4699 12.9422 10.709 12.7031C10.948 12.464 11.083 12.1399 11.083 11.8018C11.083 11.4636 10.9481 11.1395 10.709 10.9004C10.4699 10.6613 10.1458 10.5264 9.80762 10.5264C8.75812 10.5264 7.73202 10.8379 6.85938 11.4209C5.98669 12.004 5.30595 12.8331 4.9043 13.8027C4.5028 14.7722 4.39792 15.839 4.60254 16.8682C4.8073 17.8975 5.31256 18.8438 6.05469 19.5859C6.79685 20.3281 7.74306 20.8333 8.77246 21.0381C9.80164 21.2427 10.8684 21.1378 11.8379 20.7363C12.8076 20.3347 13.6366 19.6539 14.2197 18.7812C14.8027 17.9086 15.1143 16.8825 15.1143 15.833V9.61719C16.2194 10.4809 17.6114 10.9512 19.2227 10.9512C19.5606 10.9511 19.885 10.8171 20.124 10.5781C20.3632 10.339 20.4971 10.014 20.4971 9.67578C20.497 9.33768 20.3631 9.01352 20.124 8.77441C19.885 8.53536 19.5607 8.40051 19.2227 8.40039C18.027 8.40039 17.1481 8.03163 16.5029 7.45801C15.8436 6.87032 15.3473 5.9907 15.0811 4.84766C15.0106 4.54247 14.8309 4.27357 14.5752 4.09277C14.3194 3.91201 14.0056 3.83168 13.6943 3.86719Z" fill="white" stroke="white" stroke-width="0.23569"/>
</svg>
